PathFileType	4	(X/Y/Z)	F:\MotionCapture\20160217\3\Generated_files\EMG_test04-Dynamic.trc
DataRate	CameraRate	NumFrames	NumMarkers	Units	OrigDataRate	OrigDataStartFrame	OrigNumFrames
120.00	120.00	       4	39	mm	120.00	624	       713
Frame#	Time	Top.Head			Front.Head			Rear.Head			R.Shoulder			R.Offset			R.Elbow			R.Wrist			L.Shoulder			L.Elbow			L.Wrist			R.ASIS			L.ASIS			V.Sacral			R.Thigh			R.Knee			R.Shank			R.Ankle			R.Heel			R.Toe			L.Thigh			L.Knee			L.Shank			L.Ankle			L.Heel			L.Toe			R1			R2			R3			R4			R5			R6			R7			L1			L2			L3			L4			L5			L6			L7			V_Mid_ASIS			V_Pelvis_Origin			V_R.Hip_JC			V_L.Hip_JC			V_R.Knee_JC			V_L.Knee_JC			V_R.Ankle_JC			V_L.Ankle_JC			V_Mid_Hip			V_Mid_Shoulder			V_R.Hand			V_L.Hand			V_R.Toe_Offset_Static			V_L.Toe_Offset_Static			V_R.Toe_Offset			V_L.Toe_Offset			
		X1	Y1	Z1	X2	Y2	Z2	X3	Y3	Z3	X4	Y4	Z4	X5	Y5	Z5	X6	Y6	Z6	X7	Y7	Z7	X8	Y8	Z8	X9	Y9	Z9	X10	Y10	Z10	X11	Y11	Z11	X12	Y12	Z12	X13	Y13	Z13	X14	Y14	Z14	X15	Y15	Z15	X16	Y16	Z16	X17	Y17	Z17	X18	Y18	Z18	X19	Y19	Z19	X20	Y20	Z20	X21	Y21	Z21	X22	Y22	Z22	X23	Y23	Z23	X24	Y24	Z24	X25	Y25	Z25	X26	Y26	Z26	X27	Y27	Z27	X28	Y28	Z28	X29	Y29	Z29	X30	Y30	Z30	X31	Y31	Z31	X32	Y32	Z32	X33	Y33	Z33	X34	Y34	Z34	X35	Y35	Z35	X36	Y36	Z36	X37	Y37	Z37	X38	Y38	Z38	X39	Y39	Z39	

624	5.192	-2809.46655	259.70895	1725.92285	-2907.50903	221.36464	1634.90601	-2698.77783	289.62997	1664.26917	-2753.53247	457.05261	1425.24170	-2609.26367	192.50566	1274.43604	-2768.56421	564.64471	1101.11780	-2947.05688	561.49658	909.65344	-2746.49072	49.62066	1431.38855	-2732.30493	-72.81363	1116.28040	-2868.92822	-80.38539	893.57037	-2833.52661	388.94922	948.75903	-2836.42554	101.69254	950.27631	-2610.72632	237.24442	937.36334	-2884.34546	336.66168	573.57184	-2816.13965	369.60535	462.04883	-2794.58423	283.70407	229.98511				-2653.07886	275.20905	44.67599	-2864.19629	334.02304	35.92547	-2969.92163	117.06568	667.07288	-2913.14648	56.72025	485.56287	-2886.22095	135.13127	344.94980	-2696.39331	111.37542	136.91014	-2648.67969	187.27492	141.33643	-2806.52881	81.06090	61.25613	-2912.13086	315.80164	32.61535	-2872.07715	295.60788	42.11469	-2775.81152	255.48163	50.10198	-2703.26782	249.07755	41.17275	-2682.73950	320.64301	44.91700	-2755.75195	353.67862	34.36430	-2820.64233	375.70459	32.60637	-2851.51367	89.72456	41.98177	-2828.95728	113.21877	56.77977	-2765.86450	175.29584	98.29410				-2660.00586	140.04936	131.68788	-2712.59497	90.13467	93.53400	-2765.45654	65.29972	71.81210																																																	-2730.57153	341.57928	72.87948	-2679.06323	175.58963	-39.95924	-2822.08203	461.80579	196.73166	-2674.30762	230.12198	58.95613	
625	5.200	-2818.04712	258.99008	1726.30688	-2915.95898	220.25380	1635.10828	-2707.67041	290.25626	1664.52783	-2763.32666	456.60617	1425.62427	-2617.83398	193.75595	1274.11072	-2783.88818	567.04706	1102.69067	-2967.64380	561.64801	916.97620	-2753.99609	49.38810	1430.82727	-2734.71924	-71.74028	1116.41284	-2865.94214	-82.74156	890.75299	-2841.33545	389.85077	948.33667	-2845.47632	102.36830	950.23969	-2619.09570	236.30765	937.25415	-2889.34448	336.97018	572.13397	-2819.24097	369.68515	461.46759	-2796.04272	283.32986	229.73117	-2714.38892	344.88858	74.58366	-2653.41211	275.59647	45.37716	-2864.19629	334.11896	35.89492	-2979.86816	118.73965	668.78931	-2925.74414	56.82141	487.22443	-2904.21143	136.16748	345.21121	-2724.66138	112.21721	128.21371	-2675.18164	187.66370	130.33307	-2838.66553	83.56380	59.61299	-2912.22021	315.92072	32.53063	-2872.07056	296.21744	42.33837	-2776.56006	254.58420	50.78783	-2702.25146	249.33780	41.96837	-2682.81714	320.53894	44.99085	-2755.73975	353.55200	34.41946	-2820.83105	375.58896	32.62866	-2884.87500	91.60616	43.16964	-2861.36255	114.61382	55.78948	-2795.21460	175.03308	91.91611	-2722.48608	204.92699	117.14764	-2688.20313	140.56290	120.99381	-2744.03271	90.04649	86.60414	-2797.28516	66.38442	67.23375																																																	-2674.68213	157.34738	-58.84949	-2740.92358	75.63059	-65.55240	-2743.35815	248.45367	33.11558	-2816.29688	286.24799	106.53009	
626	5.208	-2826.44604	258.63147	1725.91772	-2924.49292	219.13800	1634.97437	-2716.67896	290.64981	1664.42542	-2772.95703	457.14383	1426.08057	-2625.89722	195.83270	1273.56116	-2798.24341	568.54193	1104.22449	-2987.89307	562.05859	923.83173	-2761.69141	49.36905	1430.67969	-2737.14868	-71.45089	1116.47974	-2862.49048	-84.32409	887.82098	-2849.11060	390.52997	947.94409	-2854.47192	102.85473	950.02612	-2627.65552	235.82455	937.37555	-2894.47144	337.17163	570.69299	-2822.35059	369.50195	460.45789	-2797.55835	284.82785	228.32346	-2718.90771	346.51019	75.67444	-2654.28662	275.19595	45.68632	-2864.17334	334.18448	35.86315	-2989.50366	120.02098	670.43878	-2937.29004	57.97298	487.97009	-2922.30151	137.54396	345.55249	-2753.17676	112.96318	119.80216	-2704.81201	189.09737	118.77293	-2870.70728	84.03579	56.67472	-2912.29492	316.03622	32.46210	-2872.19824	295.83521	41.99892	-2777.68213	253.74898	51.62830	-2700.56348	248.11371	42.99250	-2682.83447	320.07599	44.98186	-2755.76318	353.42413	34.50373	-2820.72241	375.55267	32.49258	-2917.92139	93.02373	43.83073	-2893.82642	116.50192	55.85883	-2824.73828	174.40344	84.63911	-2751.24707	205.82933	108.51846	-2717.88916	140.83928	111.09042	-2774.32251	92.41269	78.45382	-2829.09717	67.86398	63.00306																																																	-2824.56860	362.89386	-62.03114	
627	5.217	-2834.95703	258.19760	1725.71130	-2932.73193	218.15695	1634.67896	-2725.35791	291.32718	1663.90271	-2782.03882	456.35519	1425.71814	-2635.23486	195.04912	1273.48096	-2813.25952	570.56366	1105.41931	-3007.85742	562.22803	930.90039	-2769.59082	49.18086	1430.01294	-2739.10669	-71.41261	1116.53162	-2859.24609	-86.43959	885.27393	-2856.83643	390.99518	947.21112	-2863.39185	103.39773	949.66907	-2636.13647	236.56891	936.57751	-2899.76221	337.25308	569.47791	-2825.57544	369.26318	460.06302	-2799.18091	283.43423	228.77576	-2719.40186	345.12143	71.89307	-2654.78564	275.36194	45.98960	-2865.68311	333.42130	37.29254	-2998.94458	121.26246	671.28125	-2948.03003	59.90800	487.71957	-2939.66943	138.55571	345.50540	-2782.14038	113.49512	111.65351	-2733.15210	188.61963	108.84601	-2903.06274	86.26367	55.84655	-2913.10498	316.91925	33.64223	-2872.30371	296.69095	42.21974	-2778.78076	255.07890	50.95966	-2701.19336	247.71622	43.02850	-2682.78320	319.62601	45.35194	-2755.79419	353.27621	34.59260	-2820.63452	375.52945	32.39524	-2950.05078	95.75921	43.93629	-2925.52051	117.32388	54.85567	-2857.42017	183.11195	86.25259	-2779.03125	205.85388	99.48877	-2746.67505	142.06325	100.35809	-2805.49585	91.98831	72.56195	-2861.44336	69.40760	59.41557																																																	-2700.25220	278.08347	12.83350	
